<svg xmlns="http://www.w3.org/2000/svg" viewBox="0 0 390 110" role="img" aria-labelledby="title desc"><title id="title">WildVisit</title><desc id="desc">A Tanzania safari logo with an acacia tree, sun, hills and winding trail.</desc><g transform="translate(3 3)"><path d="M51 5C24 5 5 28 5 54s19 45 46 45 46-19 46-45S78 5 51 5Z" fill="#F7F3EA" stroke="#D6A541" stroke-width="4"/><circle cx="71" cy="33" r="12" fill="#D6A541"/><path d="M17 72c14-4 26-6 39-5 10 1 19 4 29 10H17Z" fill="#C99A3B" opacity=".65"/><path d="M9 80h84" stroke="#123D2A" stroke-width="3" stroke-linecap="round"/><path d="M39 80V42m0 12c-8-1-17-6-21-13 10-3 20 1 24 8m-3 7c8-2 18-7 22-14-11-3-20 1-25 9" fill="none" stroke="#123D2A" stroke-width="5" stroke-linecap="round" stroke-linejoin="round"/><path d="M58 80c-5-10-4-18 1-26 4-6 6-10 6-15" fill="none" stroke="#123D2A" stroke-width="3" stroke-linecap="round"/></g><g fill="#123D2A"><text x="116" y="56" font-family="Georgia, serif" font-size="43" font-weight="700" letter-spacing="2">WILD<tspan fill="#C99A3B">VISIT</tspan></text><text x="119" y="80" font-family="Arial, sans-serif" font-size="12" font-weight="700" letter-spacing="5">TANZANIA SAFARIS</text></g></svg>
